<svg xmlns="http://www.w3.org/2000/svg" fill="none" viewBox="0 0 98 98">
  <path fill="#2E9AFF" d="M48.783 43.552a2.072 2.072 0 0 1-2.07-2.07V2.07a2.072 2.072 0 0 1 4.141 0v39.41a2.07 2.07 0 0 1-2.07 2.07Zm0 54.007a2.072 2.072 0 0 1-2.07-2.071v-39.41a2.072 2.072 0 0 1 4.141 0v39.41a2.07 2.07 0 0 1-2.07 2.07ZM95.496 50.85H56.082a2.072 2.072 0 0 1 0-4.142h39.414a2.072 2.072 0 0 1 0 4.142Zm-54.012 0H2.071a2.072 2.072 0 0 1 0-4.142h39.413a2.072 2.072 0 0 1 0 4.142Zm10.996-5.767a2.072 2.072 0 0 1 0-2.928l27.867-27.867a2.072 2.072 0 0 1 2.93 2.928L55.408 45.084a2.071 2.071 0 0 1-2.929 0ZM14.291 83.272a2.072 2.072 0 0 1 0-2.929l27.867-27.867a2.072 2.072 0 0 1 2.93 2.929L17.22 83.272a2.071 2.071 0 0 1-2.929 0Zm66.059.002-27.87-27.87a2.071 2.071 0 0 1 2.929-2.928l27.87 27.87a2.072 2.072 0 0 1-2.93 2.928ZM42.158 45.082l-27.87-27.87a2.072 2.072 0 0 1 2.93-2.928l27.869 27.87a2.072 2.072 0 0 1-2.929 2.928Z"/>
</svg>