<svg width="215" height="232" viewBox="0 0 215 232" fill="none" xmlns="http://www.w3.org/2000/svg">
<g clip-path="url(#clip0_4611_1229)">
<path d="M113.256 68.3921C113.256 68.3921 128.601 71.4884 137.456 75.9351C142.947 80.2465 145.736 83.8397 145.736 83.8397L148.23 131.768L148.926 135.306L161.184 138.689L163.659 142.053L175.935 149.342L173.983 153.247L164.935 158.042L158.361 159.801L158.883 163.011L163.678 172.407L175.761 188.028L183.92 200.634L192.62 219.967L195.81 232.225L21.5 231.5C21.5 231.5 23.4527 214.895 28 203.5C32.1556 193.087 41.7409 177.028 41.7409 177.028L48.6623 166.916L67.1259 133.72L80.6208 72.8389L87.0517 70.1023L101.926 65.5694L110.085 61.4707L110.433 62.9014L110.085 65.5694L108.132 67.6961L113.275 68.3921H113.256Z" fill="white"/>
<path d="M53.8251 168.193C39.0155 179.6 24.1867 174.342 24.1867 174.342C24.1867 174.342 46.6523 161.871 50.9444 147.236C50.9444 147.236 46.9617 149.227 43.7136 147.236C43.7136 147.236 59.6252 130.242 60.3405 108.182C61.0558 86.1417 38.1069 38.4264 43.7136 35.7197C49.3204 33.013 82.0328 71.6802 82.0328 71.6802L86.7309 70.2495C86.7309 70.2495 101.734 81.2697 101.908 106.403C102.101 131.518 83.6568 138.207 76.7741 144.529C67.7453 152.843 68.6539 156.806 53.8251 168.193Z" fill="#2E9AFF"/>
<path d="M127.253 109.322C129.515 118.216 135.509 124.383 140.613 123.069C145.736 121.773 148.056 113.518 145.794 104.605C143.532 95.7116 137.558 89.5636 132.454 90.8782C127.311 92.1543 125.011 100.429 127.253 109.322Z" fill="white"/>
<path d="M115.803 97.3352C108.398 127.882 153.606 137.298 153.606 137.298C153.606 137.298 147.67 121.019 151.073 95.1892C154.457 69.3402 175.279 38.4258 167.7 38.4258C160.102 38.4258 123.207 66.8075 115.803 97.3546V97.3352Z" fill="#2E9AFF"/>
<path d="M170.581 140.005L160.469 138.748C160.469 138.748 160.784 144.634 167.28 147.36C173.796 150.067 173.481 153.19 173.481 153.19L176.996 150.953L179.245 146.764L178.72 143.253L176.555 141.087L170.581 140.005Z" fill="#2E9AFF"/>
<path d="M46.3016 170.518C27.2397 199.205 23.0679 212.305 21.2685 233.082" stroke="#2E9AFF" stroke-width="0.880422" stroke-linecap="round"/>
<path d="M49.0521 170.676C81.5636 197.873 131.535 193.143 160.441 166.69" stroke="#2E9AFF" stroke-width="0.880422" stroke-linecap="round"/>
<path d="M158.132 159.608C162.076 177.319 186.328 190.676 196.004 232.432" stroke="#2E9AFF" stroke-width="0.880422" stroke-linecap="round"/>
<path d="M135.349 128.314C135.149 128.175 134.875 128.225 134.736 128.424C134.598 128.624 134.647 128.898 134.846 129.037L135.349 128.314ZM96.878 149.523L97.1447 149.172L96.879 148.97L96.6126 149.171L96.878 149.523ZM179.142 143.698L179.574 143.61C179.57 143.591 179.565 143.573 179.559 143.555L179.142 143.698ZM90.8506 151.535C90.6075 151.534 90.4096 151.73 90.4085 151.973C90.4075 152.216 90.6037 152.414 90.8468 152.415L90.8506 151.535ZM134.846 129.037C144.997 136.096 155.529 138.229 163.763 139.42C167.901 140.018 171.406 140.374 174.043 140.989C176.71 141.611 178.249 142.452 178.726 143.841L179.559 143.555C178.912 141.674 176.9 140.751 174.243 140.132C171.557 139.505 167.966 139.138 163.889 138.549C155.697 137.364 145.33 135.255 135.349 128.314L134.846 129.037ZM178.711 143.786C179.518 147.749 176.766 151.4 171.394 154.354C166.052 157.291 158.29 159.429 149.535 160.39C132.013 162.313 110.711 159.499 97.1447 149.172L96.6114 149.873C110.432 160.393 131.999 163.2 149.631 161.265C158.454 160.297 166.34 158.137 171.818 155.125C177.265 152.13 180.504 148.179 179.574 143.61L178.711 143.786ZM96.6126 149.171C95.3594 150.118 94.4331 150.706 93.5673 151.06C92.7129 151.409 91.8962 151.54 90.8506 151.535L90.8468 152.415C91.9797 152.42 92.9158 152.278 93.9005 151.875C94.8737 151.477 95.8729 150.834 97.1434 149.874L96.6126 149.171Z" fill="#2E9AFF"/>
<line x1="21.3502" y1="231.442" x2="195.894" y2="231.442" stroke="#2E9AFF" stroke-width="1.10053"/>
</g>
<path d="M113.477 7.76673L86.7216 70.2469L130.904 73.4197L113.477 7.76673Z" fill="white"/>
<path fill-rule="evenodd" clip-rule="evenodd" d="M115.874 16.7964L113.477 7.76673L109.797 16.36L115.874 16.7964ZM102.018 34.5272L105.907 25.4437L118.408 26.3413L120.941 35.8862L102.018 34.5272ZM94.238 52.6944L98.1278 43.6108L123.475 45.431L126.008 54.9759L94.238 52.6944ZM128.542 64.5208L130.904 73.4197L86.7216 70.2469L90.3482 61.778L128.542 64.5208Z" fill="#2E9AFF"/>
<rect x="80.1459" y="69.2383" width="57.6666" height="19.0717" rx="9.53583" transform="rotate(4.10145 80.1459 69.2383)" fill="white"/>
<circle cx="97.6951" cy="10.3125" r="9.68618" transform="rotate(-3.84065 97.6951 10.3125)" fill="white"/>
<path d="M80.5371 107.126L80.5371 107.126C80.1835 107.646 80.3127 108.358 80.8319 108.717L80.8331 108.718C81.0294 108.852 81.2547 108.918 81.4778 108.918C81.8403 108.918 82.1987 108.744 82.419 108.419C84.0434 106.032 86.7223 104.607 89.5826 104.607C92.4431 104.607 95.1214 106.031 96.7465 108.419L80.5371 107.126ZM80.5371 107.126C82.585 104.115 85.9659 102.316 89.5826 102.316C93.1991 102.316 96.5799 104.115 98.6278 107.126M80.5371 107.126L98.6278 107.126M98.6278 107.126C98.9821 107.646 98.8513 108.358 98.3336 108.716L98.6278 107.126ZM98.3335 108.716C97.813 109.078 97.1017 108.942 96.7465 108.42L98.3335 108.716Z" fill="white" stroke="white" stroke-width="0.880422"/>
<path d="M136.192 108.912L136.192 108.912C135.995 109.048 135.77 109.114 135.546 109.114C135.183 109.114 134.825 108.94 134.605 108.615C132.98 106.226 130.303 104.803 127.441 104.803C124.581 104.803 121.902 106.227 120.277 108.614C119.922 109.138 119.211 109.272 118.69 108.912C118.171 108.553 118.042 107.841 118.396 107.321C120.444 104.31 123.825 102.511 127.441 102.511C131.058 102.511 134.439 104.31 136.487 107.321L136.487 107.321C136.841 107.842 136.71 108.553 136.192 108.912Z" fill="white" stroke="white" stroke-width="0.880422"/>
<defs>
<clipPath id="clip0_4611_1229">
<rect width="214.603" height="214.603" fill="white" transform="matrix(-1 0 0 1 214.603 17.3965)"/>
</clipPath>
</defs>
</svg>
