
SVGOMG
Powered by SVGO v2.7.0

Open SVG
Paste markup
Demo
Contribute

7.31k → 3.47k 47.55%
<svg xmlns="http://www.w3.org/2000/svg" fill="none" viewBox="0 0 164 181">
  <path fill="#2E9AFF" d="m119.776 58.2 13.741-22.621c3.454-5.728 1.584-13.064-3.986-16.703-5.708-3.728-8.645-6.768-12.101-1.044l-16.053 24.726-1.141 1.69L85.1 69.32"/>
  <path fill="#000" d="M84.974 69.318a.441.441 0 0 1-.382-.222.432.432 0 0 1 .008-.44l15.21-24.673.012-.017 1.147-1.663 7.782-11.741 8.343-12.583c1.18-1.915 2.359-2.948 3.699-3.238 2.107-.46 4.241.954 7.192 2.91.598.398 1.216.807 1.875 1.229 5.885 3.762 7.705 11.243 4.142 17.027L120.193 58.17l-.749-.456 13.808-22.26c3.311-5.377 1.612-12.337-3.868-15.842a103.44 103.44 0 0 1-1.887-1.236c-2.772-1.837-4.775-3.164-6.516-2.787-1.091.24-2.09 1.146-3.144 2.856l-8.35 12.595-7.787 11.75-1.147 1.66L85.35 69.112a.438.438 0 0 1-.376.209v-.002Z"/>
  <path fill="#2E9AFF" d="M118.44 16.907c4.223 2.94 4.982 8.098 2.252 12.176-2.744 4.102-8.008 5.423-11.922 2.848"/>
  <path fill="#000" d="M113.159 33.814a8.83 8.83 0 0 1-4.752-1.376.445.445 0 0 1-.191-.271.426.426 0 0 1 .181-.444.445.445 0 0 1 .49-.007c3.766 2.39 8.828 1.214 11.527-2.675 2.714-3.912 1.799-8.688-2.177-11.356a.426.426 0 0 1 .173-.77.45.45 0 0 1 .326.062c4.392 2.946 5.406 8.222 2.408 12.545-1.926 2.777-4.956 4.292-7.985 4.292Z"/>
  <path fill="#fff" d="m111.569 27.615-2.799 4.228c1.654 1.056 4.057 1.651 6.282 1.012-.099-1.792-1.653-4.193-3.481-5.24h-.002Zm41.07 25.814a3.967 3.967 0 0 0-2.778 1.202 3.91 3.91 0 0 0-1.106 2.798 3.91 3.91 0 0 0-1.18-2.813 3.966 3.966 0 0 0-2.854-1.128 3.991 3.991 0 0 0-1.531.336 3.954 3.954 0 0 0-2.105 2.22 3.9 3.9 0 0 0-.245 1.534c.085 4.423 7.501 9.5 8.101 9.487.59-.01 7.817-5.364 7.732-9.787a3.91 3.91 0 0 0-1.214-2.752 3.977 3.977 0 0 0-2.82-1.097Z"/>
  <path fill="#2E9AFF" d="m122.843 57.42 16.158-20.888c4.066-5.29 2.937-12.716-2.301-16.876-5.361-4.261-8.007-7.562-12.075-2.274l-18.699 22.723-1.323 1.548L86.79 64.811"/>
  <path fill="#000" d="M87.23 65.373a.44.44 0 0 1-.35-.706l17.706-23.272.014-.018 1.316-1.556 10.18-12.505 8.403-10.321c1.374-1.806 2.654-2.724 4.021-2.881 2.146-.244 4.123 1.399 6.86 3.672a96.66 96.66 0 0 0 1.742 1.428c5.47 4.396 6.508 12.113 2.359 17.569l-16.062 20.988a.44.44 0 0 1-.699-.534l16.061-20.988c3.857-5.073 2.884-12.253-2.212-16.346-.587-.475-1.17-.954-1.75-1.438-2.568-2.134-4.426-3.678-6.2-3.476-1.112.127-2.203.938-3.431 2.55l-8.411 10.334-10.185 12.512-1.314 1.553-17.698 23.26a.44.44 0 0 1-.352.177l.002-.002Z"/>
  <path fill="#2E9AFF" d="M125.82 16.344c4 3.366 4.237 8.583 1.03 12.364-3.221 3.799-8.723 4.571-12.444 1.598"/>
  <path fill="#000" d="M119.641 32.687a9.118 9.118 0 0 1-5.611-1.894.424.424 0 0 1-.172-.466.426.426 0 0 1 .225-.265.465.465 0 0 1 .512.063c3.563 2.755 8.83 2.094 11.987-1.51 3.174-3.624 2.757-8.472-.99-11.527a.42.42 0 0 1-.034-.593.467.467 0 0 1 .617-.062c4.143 3.376 4.604 8.732 1.098 12.734-2.027 2.313-4.849 3.52-7.632 3.52Z"/>
  <path fill="#fff" d="m117.935 26.488-2.966 3.866c1.415 1.202 3.528 2.05 5.632 1.684.081-1.767-1.092-4.339-2.666-5.55Z"/>
  <path fill="#2E9AFF" d="m45.65 110.896 7.141-7.992 33.176-40.47c17.126-23.252 34.375-26.776 34.375-26.776l22.632-7.486c6.619-2.271 8.335 2.731 10.376 9.077.98 3.048.711 6.361-.747 9.21a12.056 12.056 0 0 1-7.026 5.986c-.362.116-21.811 7.888-21.811 7.888-13.443 5.287-11.943 15.007-11.943 15.007.332 2.937 4.018 6.664 7.522 8.941l19.483-13.087 2.548-1.64.014-.01c5.531-3.704 12.96-2.174 16.71 3.33 4.559 6.685 8.023 8.932 2.488 12.635-.316.213-6.448 4.51-6.773 4.688l-46.187 30.971c-.645.506-1.308.989-1.987 1.447-6.882 4.607-12.669 8.302-20.302 7.507l-7.72 8.517"/>
  <path fill="#000" d="M77.562 139.203a.443.443 0 0 1-.401-.262.442.442 0 0 1 .076-.475l7.737-8.536a.437.437 0 0 1 .373-.141c7.72.804 13.712-3.207 20.054-7.453.605-.405 1.229-.86 1.964-1.431l.026-.017 46.281-31.042.035-.02c.26-.15 3.728-2.569 5.393-3.73l1.361-.948c1.623-1.086 2.457-2.045 2.625-3.017.261-1.509-1.007-3.224-2.927-5.818a97.2 97.2 0 0 1-2.309-3.214 11.761 11.761 0 0 0-7.427-4.945 11.47 11.47 0 0 0-8.711 1.727l-.025.014-2.55 1.645-19.516 13.11a.437.437 0 0 1-.484.004c-3.474-2.26-7.374-6.124-7.736-9.273-.029-.2-.349-2.654.963-5.762 1.228-2.905 4.18-6.953 11.28-9.746.888-.324 21.519-7.8 21.887-7.916a11.655 11.655 0 0 0 6.777-5.783 11.697 11.697 0 0 0 .726-8.891c-1.263-3.925-2.455-7.634-4.941-8.882-1.284-.645-2.886-.624-4.896.067l-11.57 3.828-11.113 3.674-.051.014c-.042.009-4.357.924-10.696 4.653-5.854 3.443-14.679 10.057-23.485 22.014a.4.4 0 0 1-.014.017l-33.246 40.56-.012.014-7.157 8.008a.458.458 0 0 1-.136.104.445.445 0 0 1-.484-.069.433.433 0 0 1-.146-.303.448.448 0 0 1 .11-.319l7.152-8 33.233-40.544c8.908-12.093 17.851-18.784 23.784-22.267 6.274-3.683 10.498-4.641 10.897-4.726l11.088-3.667 11.565-3.824c2.24-.77 4.065-.777 5.572-.022 2.814 1.414 4.062 5.294 5.381 9.4 2.115 6.58-1.505 13.661-8.071 15.783-7.284 2.626-14.566 5.259-21.844 7.9-5.36 2.11-9.084 5.3-10.758 9.217-1.263 2.955-.927 5.322-.923 5.345.304 2.69 3.761 6.263 7.102 8.497l19.28-12.952 2.561-1.65.012-.008a12.347 12.347 0 0 1 9.369-1.854 12.633 12.633 0 0 1 7.979 5.311c.811 1.191 1.597 2.25 2.288 3.186 2.057 2.778 3.415 4.614 3.087 6.494-.214 1.244-1.141 2.355-3.001 3.599l-1.347.937c-3.207 2.238-5.143 3.583-5.451 3.768l-46.259 31.024c-.651.511-1.319.998-2.005 1.46-6.418 4.296-12.48 8.356-20.41 7.616l-7.59 8.374a.444.444 0 0 1-.326.143Z"/>
  <path fill="#2E9AFF" d="M161.182 84.484c-3.006-4.328-8.197-5.043-12.256-2.168-4.082 2.89-5.342 8.35-2.703 12.364"/>
  <path fill="#000" d="M146.076 95.242a.433.433 0 0 1-.359-.193c-2.71-4.108-1.495-9.679 2.762-12.686 4.299-3.033 9.608-2.097 12.622 2.225a.447.447 0 0 1 .015.488.438.438 0 0 1-.271.194.424.424 0 0 1-.449-.176c-2.727-3.91-7.532-4.757-11.423-2.01-3.869 2.73-4.984 7.771-2.538 11.477a.441.441 0 0 1-.136.62.424.424 0 0 1-.223.063v-.002Z"/>
  <path fill="#fff" d="m150.474 91.856-3.849 2.825c-.989-1.623-1.562-3.99-1.004-6.2 1.646.076 3.872 1.58 4.853 3.375Z"/>
  <path fill="#2E9AFF" d="M144.999 28.179c1.466 4.955-1.193 9.425-5.906 10.85-4.74 1.43-9.712-.887-11.162-5.364"/>
  <path fill="#000" d="M136.22 40.014c-4.008 0-7.597-2.388-8.831-6.219a.44.44 0 0 1 .027-.34.461.461 0 0 1 .259-.22.448.448 0 0 1 .476.134.442.442 0 0 1 .084.152c1.39 4.317 6.117 6.594 10.762 5.185 4.671-1.42 7.064-5.844 5.69-10.52a.441.441 0 0 1 .147-.472.451.451 0 0 1 .327-.096.44.44 0 0 1 .298.163.451.451 0 0 1 .081.154c1.518 5.167-1.125 10.055-6.286 11.623-.983.3-2.006.454-3.034.456Z"/>
  <path fill="#fff" d="m133.162 32.126-4.824 1.534c.608 1.857 2.069 3.859 4.187 4.754 1.053-1.453 1.385-4.332.637-6.29v.002ZM89.614 132.55l-36.54-32.578c-.76-.677-1.907-.633-2.559.098l-15.01 12.893 22.136 19.735 8.714-2.427-1.176 9.146 13.034 11.621 11.6-15.934c.65-.731.562-1.875-.2-2.554Z"/>
  <path fill="#fff" d="M7.764 134.769a.434.434 0 0 1-.415-.299.444.444 0 0 1 .15-.49l28.479-21.739a.44.44 0 0 1 .53.7L8.028 134.68a.437.437 0 0 1-.262.089h-.002Zm49.84 45.573a.439.439 0 0 1-.36-.686l24.812-36.679a.438.438 0 0 1 .724.494L57.964 180.15a.433.433 0 0 1-.363.194l.002-.002ZM.563.563l71.01 51.85L.564.562Z"/>
  <path fill="#fff" d="M71.7 52.976a.439.439 0 0 1-.262-.086L.197.802A.438.438 0 1 1 .714.097l71.243 52.089a.437.437 0 0 1-.26.79h.002Zm-5.762 6.763-37.76-12.4 37.76 12.4Zm.124.563a.45.45 0 0 1-.141-.023l-38-12.648a.44.44 0 0 1-.283-.556.439.439 0 0 1 .564-.274l38 12.649a.44.44 0 0 1 .294.485.436.436 0 0 1-.434.367Zm-6.887 7.891-21.98-1.128 21.98 1.128Zm-.439.563h-.02l-21.092-.889a.455.455 0 0 1-.31-.124.377.377 0 0 1-.076-.45.405.405 0 0 1 .105-.129.438.438 0 0 1 .321-.097l21.09.887a.446.446 0 0 1 .302.124.39.39 0 0 1 .12.286.389.389 0 0 1-.134.28.447.447 0 0 1-.306.112Zm19.037-23.67L48.467 4.51l29.306 40.577Z"/>
  <path fill="#fff" d="M77.896 45.65a.443.443 0 0 1-.36-.183L47.987 4.64a.437.437 0 0 1 .258-.683.444.444 0 0 1 .459.17l29.55 40.827a.436.436 0 0 1-.357.696Zm6.64-9.017L77.773 15.78l6.763 20.852Z"/>
  <path fill="#fff" d="M84.663 37.196a.441.441 0 0 1-.41-.3L77.24 15.822a.45.45 0 0 1 .114-.492.432.432 0 0 1 .492-.062.437.437 0 0 1 .216.271l7.015 21.074a.45.45 0 0 1-.059.399.437.437 0 0 1-.353.184h-.002Z"/>
</svg>