<svg xmlns="http://www.w3.org/2000/svg" fill="none" viewBox="0 0 181 141">
  <path fill="#fff" d="m177.318 150.744.462-.93c.147-.314.279-.636.418-.95l.21-.477.1-.236.093-.241c.245-.647.501-1.279.698-1.938a32.274 32.274 0 0 0 1.121-15.824 29.983 29.983 0 0 0-2.315-7.319 29.274 29.274 0 0 0-3.973-6.296.977.977 0 0 0-1.237-.213.972.972 0 0 0-.419 1.182l.008.016a30.438 30.438 0 0 1 1.733 6.513c.019.135.047.271.062.407l.047.411.089.814c.023.271.035.546.05.814.012.271.039.542.039.814 0 .542.023 1.077-.008 1.616l-.027.799-.066.798-.035.396c-.011.132-.035.263-.05.395l-.105.783c-.031.26-.089.52-.132.776-.05.259-.085.519-.143.775l-.174.76c-.032.124-.055.252-.09.376l-.108.376-.206.744-.248.737c-.151.484-.349.961-.523 1.434-.085.24-.202.465-.299.698-.104.232-.193.465-.31.694l-.337.674-.167.338-.186.325-.364.655-.396.632c-.248.427-.542.826-.814 1.229l-.104.155-.113.144-.221.294c-.151.194-.29.388-.445.578l-.47.554-.232.279-.248.264-.493.527c-.166.174-.345.337-.511.504a25.58 25.58 0 0 1-2.14 1.861l-.57.415c-.19.135-.368.283-.57.407-.391.252-.764.519-1.174.744l-.59.357-.612.321-.303.163-.155.078-.155.077-.62.291c-.105.046-.205.101-.31.143l-.291.117c-.198.077-.387.166-.589.232l-.593.202c-.194.07-.399.116-.593.178l-.295.089-.302.074c-.198.043-.396.101-.597.14l-.597.112c-.198.039-.403.054-.601.085-.803.101-1.601.155-2.396.128a11.525 11.525 0 0 1-2.341-.283c-.194-.035-.38-.097-.566-.147a6.772 6.772 0 0 1-.559-.167c-.186-.066-.368-.116-.55-.194l-.535-.217a14.616 14.616 0 0 1-1.314-.67l-8.35 16.134c.542.163 1.085.306 1.628.446a35.74 35.74 0 0 0 4.78.775c3.194.271 6.365.128 9.439-.407a29.668 29.668 0 0 0 4.509-1.144c.364-.128.736-.24 1.093-.387l1.07-.427c.356-.147.701-.31 1.05-.469.175-.081.349-.159.52-.244l.511-.264c.338-.178.679-.345 1.008-.542l.977-.582c.326-.194.636-.411.95-.62l.469-.31c.155-.109.295-.217.438-.322a27.98 27.98 0 0 0 1.702-1.33l.822-.69.791-.728c.527-.481 1.015-1.008 1.511-1.516.252-.252.481-.527.718-.791l.697-.806a34.752 34.752 0 0 0 2.474-3.435c.182-.298.372-.589.55-.892l.512-.914.252-.458.232-.465.004-.004Z"/>
  <path fill="#2E9AFF" d="m125.539 148.496 22.348-22.089-47.364-78.725-57.295 25.806-11.169-.155-1.104 6.431-5.482 31.815 28.5 36.917h71.566Z"/>
  <path fill="#000" d="M125.938 149.465H53.497l-29.051-37.634 6.8-39.478 11.776.162 57.889-26.07 48.198 80.117-23.171 22.903Zm-71.488-1.938h70.694l21.518-21.275-46.526-77.333-56.707 25.538-10.556-.143-6.373 37.01 27.95 36.207v-.004Z"/>
  <path fill="#2E9AFF" d="M140.522 114.165c6.83 11.358 13.312 20.158 13.312 30.881 0 15.27-12.021 24.073-27.233 24.325l-61.804.473 2.442-20.135 30.99-9.583a27.94 27.94 0 0 1 15.3-23.616"/>
  <path fill="#000" d="M64.793 170.81a.952.952 0 0 1-.396-.087.967.967 0 0 1-.561-.998l2.442-20.131a.973.973 0 0 1 .674-.814l30.346-9.382a28.963 28.963 0 0 1 15.797-23.752.964.964 0 0 1 1.073.126.973.973 0 0 1 .337.664.986.986 0 0 1-.234.707.972.972 0 0 1-.3.232 27.022 27.022 0 0 0-14.77 22.795.97.97 0 0 1-.682.884l-30.392 9.396-2.233 18.414 60.707-.461c7.385-.124 14.033-2.365 18.701-6.304 4.95-4.178 7.571-10.079 7.571-17.056 0-8.967-4.815-16.771-10.389-25.811a524.988 524.988 0 0 1-2.792-4.566.987.987 0 0 1-.11-.735.97.97 0 0 1 1.773-.265c.939 1.562 1.877 3.081 2.784 4.551 5.726 9.288 10.672 17.312 10.672 26.826 0 14.851-11.327 25.019-28.187 25.298l-61.815.473H64.8l-.008-.004Z"/>
  <path fill="#2E9AFF" d="M59.722.97c-22.53 0-40.8 18.266-40.8 40.8v27.94a17.003 17.003 0 0 0 17.002 16.998h47.597a17.003 17.003 0 0 0 17.002-16.999V41.771c0-22.535-18.266-40.801-40.8-40.801Z"/>
  <path fill="#000" d="M83.52 87.677H35.925a17.991 17.991 0 0 1-17.972-17.968V41.77C17.952 18.74 36.692 0 59.722 0c23.031 0 41.771 18.74 41.771 41.77v27.94a17.995 17.995 0 0 1-17.972 17.968ZM59.724 1.938C37.761 1.938 19.89 19.81 19.89 41.77v27.94a16.049 16.049 0 0 0 16.033 16.03H83.52a16.05 16.05 0 0 0 16.033-16.034V41.77c0-21.965-17.87-39.832-39.832-39.832Z"/>
  <path fill="#fff" d="M60.304 90.041a4.497 4.497 0 0 0 4.493-4.493v-6.985a1.873 1.873 0 0 0-1.872-1.873l-2.621-3.35-2.62 3.35a1.873 1.873 0 0 0-1.873 1.873v6.985a4.497 4.497 0 0 0 4.493 4.497v-.004ZM38.847 74.283c6.845 0 12.393-5.549 12.393-12.394 0-6.844-5.548-12.393-12.393-12.393-6.845 0-12.393 5.549-12.393 12.393 0 6.845 5.548 12.394 12.393 12.394Zm61.676-23.224a18.924 18.924 0 0 0 18.926-18.922V8.855A7.884 7.884 0 0 0 111.564.97H89.487a7.884 7.884 0 0 0-7.885 7.885v23.282a18.919 18.919 0 0 0 18.921 18.918v.004Z"/>
  <path fill="#000" d="M39.479 65.948a3.43 3.43 0 1 0 0-6.861 3.43 3.43 0 0 0 0 6.861Zm42.856 0a3.43 3.43 0 1 0 0-6.861 3.43 3.43 0 0 0 0 6.861ZM66.634 64.58c0 3.497-4.082 9.645-6.33 9.645-2.016 0-6.33-6.148-6.33-9.644a6.33 6.33 0 0 1 12.66 0Z"/>
  <path fill="#000" d="M54.474 78.916c-.814 0-1.357-.194-1.446-.225a.97.97 0 0 1 .67-1.818c.155.054 3.295 1.046 5.478-4.303a.97.97 0 1 1 1.795.729c-1.485 3.651-3.509 4.942-4.943 5.384a5.355 5.355 0 0 1-1.55.233h-.004Z"/>
  <path fill="#000" d="M66.154 78.896c-1.706 0-4.567-.802-6.52-5.597a.969.969 0 1 1 1.794-.733c2.222 5.454 5.439 4.322 5.466 4.31a.969.969 0 1 1 .682 1.815c-.015.008-.573.205-1.422.205Z"/>
  <path fill="#fff" d="M18.922 51.059A18.92 18.92 0 0 0 37.85 32.137V8.855A7.886 7.886 0 0 0 29.966.97H7.885A7.885 7.885 0 0 0 0 8.855v23.282a18.918 18.918 0 0 0 18.922 18.918v.004Z"/>
  <path fill="#2E9AFF" d="M86.96 105.823 76.88 159.63l-23.988-4.884 8.44-48.76"/>
  <path fill="#000" d="M76.88 160.599c-.062 0-.128-.008-.194-.02l-23.988-4.884a.972.972 0 0 1-.764-1.117l8.44-48.759a.971.971 0 0 1 1.747-.395.97.97 0 0 1 .164.724l-8.277 47.837 22.1 4.497 9.898-52.838a.97.97 0 0 1 1.907.357l-10.08 53.807a.973.973 0 0 1-.953.791Z"/>
  <path fill="#2E9AFF" d="m52.066 105.822-10.079 53.807L18 154.745l8.994-51.977"/>
  <path fill="#000" d="M41.987 160.599c-.062 0-.128-.008-.194-.02l-23.988-4.884a.972.972 0 0 1-.764-1.117l8.994-51.977a.976.976 0 0 1 .744-.78.964.964 0 0 1 1.005.389.971.971 0 0 1 .162.725l-8.834 51.05 22.104 4.497 9.897-52.838a.971.971 0 0 1 1.497-.668.968.968 0 0 1 .406 1.025l-10.075 53.807a.968.968 0 0 1-.954.791Z"/>
</svg>