<svg xmlns="http://www.w3.org/2000/svg" fill="none" viewBox="0 0 178 62">
  <rect width="177.545" height="62" fill="#fff" rx="31"/>
  <path fill="#000" d="M35.335 45.608c-7.27 0-10.822-4.679-10.822-12.344V13.762c0-1.24.677-1.916 1.691-1.916 1.015 0 1.747.676 1.747 1.916v19.502c0 6.482 2.819 9.13 7.384 9.13 4.678 0 7.496-2.648 7.496-9.13V13.762c0-1.24.677-1.916 1.691-1.916 1.015 0 1.748.676 1.748 1.916v19.502c0 7.665-3.551 12.343-10.935 12.343Zm26.525-.17c-7.27 0-12.85-5.298-12.85-12.625s5.58-12.626 12.85-12.626c7.271 0 12.851 5.299 12.851 12.626 0 7.327-5.58 12.625-12.85 12.625Zm0-3.043c4.622 0 8.737-3.27 9.47-8.06-.846 1.014-2.086 1.747-4.115 1.747-3.213 0-8.511-3.438-11.217-3.438-2.085 0-3.494 1.803-3.212 3.212.845 4.059 4.903 6.539 9.074 6.539Zm5.806-9.413c2.085 0 3.55-1.747 3.269-3.213-.79-4.002-4.96-6.538-9.075-6.538-4.678 0-8.792 3.325-9.469 8.116.79-1.014 2.03-1.803 4.058-1.803 3.213 0 8.511 3.438 11.217 3.438Zm12.716 13.302c-1.41 0-2.65-.395-2.65-1.691 0-.79.62-1.522 1.523-1.522.338 0 .958.113 1.352.113 1.804 0 3.946-2.367 5.13-4.058-2.424-2.593-5.073-5.919-5.073-9.582 0-4.227 3.212-7.215 7.665-7.215 4.453 0 7.666 2.988 7.666 7.215 0 3.663-2.65 6.989-5.073 9.582 1.184 1.69 3.325 4.058 5.129 4.058.394 0 1.014-.113 1.353-.113.901 0 1.522.733 1.522 1.522 0 1.296-1.24 1.69-2.65 1.69-3.832 0-6.087-2.367-7.947-4.903-1.86 2.536-4.114 4.904-7.947 4.904Zm34.416-.846c-7.271 0-12.851-5.298-12.851-12.625s5.58-12.626 12.851-12.626c7.271 0 12.851 5.299 12.851 12.626 0 7.327-5.58 12.625-12.851 12.625Zm0-3.043c4.622 0 8.736-3.27 9.469-8.06-.845 1.014-2.085 1.747-4.114 1.747-3.213 0-8.511-3.438-11.217-3.438-2.085 0-3.494 1.803-3.212 3.212.845 4.059 4.903 6.539 9.074 6.539Zm5.806-9.413c2.085 0 3.55-1.747 3.269-3.213-.789-4.002-4.96-6.538-9.075-6.538-4.678 0-8.793 3.325-9.469 8.116.789-1.014 2.029-1.803 4.058-1.803 3.213 0 8.511 3.438 11.217 3.438Zm20.607 12.626c-7.271 0-10.822-4.679-10.822-12.344V13.762c0-1.24.676-1.916 1.691-1.916 1.014 0 1.747.676 1.747 1.916v19.502c0 6.482 2.818 9.13 7.384 9.13 4.678 0 7.496-2.648 7.496-9.13V13.762c0-1.24.676-1.916 1.691-1.916 1.014 0 1.747.676 1.747 1.916v19.502c0 7.665-3.551 12.343-10.934 12.343Z"/>
</svg>