<svg width="128" height="128" viewBox="0 0 128 128" fill="none" xmlns="http://www.w3.org/2000/svg">
<g clip-path="url(#clip0_6413_5)">
<path d="M64 128C99.3462 128 128 99.3462 128 64C128 28.6538 99.3462 0 64 0C28.6538 0 0 28.6538 0 64C0 99.3462 28.6538 128 64 128Z" fill="#2E9AFF"/>
<path fill-rule="evenodd" clip-rule="evenodd" d="M56.02 46.47C56.0041 45.4063 56.198 44.3498 56.5904 43.361C56.9829 42.3722 57.5663 41.4704 58.3073 40.707C59.0484 39.9437 59.9325 39.3338 60.9093 38.9123C61.886 38.4907 62.9363 38.2656 64 38.25C65.0637 38.2656 66.114 38.4907 67.0907 38.9123C68.0675 39.3338 68.9516 39.9437 69.6927 40.707C70.4337 41.4704 71.0171 42.3722 71.4096 43.361C71.802 44.3498 71.9959 45.4063 71.98 46.47V73H56.02V46.47ZM38 73V46.47C38 31.92 49.57 20 64 20C78.43 20 90 31.92 90 46.47V73H93.07C95.1635 72.992 97.1745 73.8153 98.6614 75.2891C100.148 76.7628 100.989 78.7665 101 80.86V98.14C100.989 100.233 100.148 102.237 98.6614 103.711C97.1745 105.185 95.1635 106.008 93.07 106C90.9765 106.008 88.9655 105.185 87.4786 103.711C85.9917 102.237 85.1506 100.233 85.14 98.14V88.71H42.86V98.14C42.8494 100.233 42.0083 102.237 40.5214 103.711C39.0345 105.185 37.0235 106.008 34.93 106C32.8365 106.008 30.8255 105.185 29.3386 103.711C27.8517 102.237 27.0106 100.233 27 98.14V80.86C27.0106 78.7665 27.8517 76.7628 29.3386 75.2891C30.8255 73.8153 32.8365 72.992 34.93 73H38Z" fill="black"/>
</g>
<defs>
<clipPath id="clip0_6413_5">
<rect width="128" height="128" fill="white"/>
</clipPath>
</defs>
</svg>
