<svg width="177" height="62" viewBox="0 0 177 62" fill="none" xmlns="http://www.w3.org/2000/svg">
<rect x="0.258606" y="0.265625" width="176.594" height="61.6677" rx="30.8339" fill="#2E9AFF"/>
<path d="M31.0899 45.8532C23.858 45.8532 20.3261 41.2001 20.3261 33.5757V14.1784C20.3261 12.9451 20.9988 12.2724 22.0079 12.2724C23.0171 12.2724 23.7459 12.9451 23.7459 14.1784V33.5757C23.7459 40.0228 26.5489 42.6577 31.0899 42.6577C35.743 42.6577 38.5461 40.0228 38.5461 33.5757V14.1784C38.5461 12.9451 39.2188 12.2724 40.228 12.2724C41.2371 12.2724 41.9659 12.9451 41.9659 14.1784V33.5757C41.9659 41.2001 38.434 45.8532 31.0899 45.8532ZM59.7155 45.4047C59.323 45.4047 58.8185 45.2365 58.2018 44.7881C51.3062 39.6865 45.0834 31.6696 45.0834 25.1104C45.0834 19.7846 48.7274 16.9255 52.6517 16.9255C56.1836 16.9255 58.3139 18.3831 59.7155 20.177C61.117 18.3831 63.3595 16.9255 66.8914 16.9255C70.8157 16.9255 74.4597 19.7846 74.4597 25.1104C74.4597 31.6696 68.2368 39.6865 61.3413 44.7881C60.7246 45.2365 60.22 45.4047 59.7155 45.4047ZM59.7155 26.0074C58.4261 23.1483 56.3518 20.0088 53.1563 20.0088C50.4653 20.0088 48.5032 21.971 48.5032 25.1104C48.5032 30.212 54.1093 37.7804 59.7155 41.5925C65.4338 37.7804 71.0399 30.212 71.0399 25.1104C71.0399 21.971 69.0778 20.0088 66.3868 20.0088C63.1913 20.0088 61.0609 23.1483 59.7155 26.0074ZM80.3803 46.526C78.9787 46.526 77.7454 46.1335 77.7454 44.8441C77.7454 44.0593 78.3621 43.3305 79.2591 43.3305C79.5954 43.3305 80.2121 43.4426 80.6045 43.4426C82.3985 43.4426 84.5288 41.088 85.7061 39.4061C83.2955 36.8273 80.6606 33.5197 80.6606 29.8757C80.6606 25.6711 83.8561 22.6998 88.285 22.6998C92.7138 22.6998 95.9093 25.6711 95.9093 29.8757C95.9093 33.5197 93.2744 36.8273 90.8638 39.4061C92.0411 41.088 94.1714 43.4426 95.9654 43.4426C96.3578 43.4426 96.9745 43.3305 97.3109 43.3305C98.2079 43.3305 98.8245 44.0593 98.8245 44.8441C98.8245 46.1335 97.5912 46.526 96.1896 46.526C92.3775 46.526 90.135 44.1714 88.285 41.6486C86.4349 44.1714 84.1925 46.526 80.3803 46.526ZM116.854 45.4047C116.462 45.4047 115.957 45.2365 115.341 44.7881C108.445 39.6865 102.222 31.6696 102.222 25.1104C102.222 19.7846 105.866 16.9255 109.791 16.9255C113.323 16.9255 115.453 18.3831 116.854 20.177C118.256 18.3831 120.498 16.9255 124.03 16.9255C127.955 16.9255 131.599 19.7846 131.599 25.1104C131.599 31.6696 125.376 39.6865 118.48 44.7881C117.864 45.2365 117.359 45.4047 116.854 45.4047ZM116.854 26.0074C115.565 23.1483 113.491 20.0088 110.295 20.0088C107.604 20.0088 105.642 21.971 105.642 25.1104C105.642 30.212 111.248 37.7804 116.854 41.5925C122.573 37.7804 128.179 30.212 128.179 25.1104C128.179 21.971 126.217 20.0088 123.526 20.0088C120.33 20.0088 118.2 23.1483 116.854 26.0074ZM145.368 45.8532C138.136 45.8532 134.604 41.2001 134.604 33.5757V14.1784C134.604 12.9451 135.277 12.2724 136.286 12.2724C137.295 12.2724 138.024 12.9451 138.024 14.1784V33.5757C138.024 40.0228 140.827 42.6577 145.368 42.6577C150.021 42.6577 152.824 40.0228 152.824 33.5757V14.1784C152.824 12.9451 153.497 12.2724 154.506 12.2724C155.515 12.2724 156.244 12.9451 156.244 14.1784V33.5757C156.244 41.2001 152.712 45.8532 145.368 45.8532Z" fill="white"/>
</svg>
