<svg width="163" height="29" viewBox="0 0 163 29" fill="none" xmlns="http://www.w3.org/2000/svg">
<rect width="77.4475" height="28.8177" rx="14.4088" fill="#2E9AFF"/>
<path d="M62.0211 21.9664C58.7683 21.9664 57.1797 19.8735 57.1797 16.4442V7.71963C57.1797 7.16489 57.4823 6.8623 57.9362 6.8623C58.39 6.8623 58.7178 7.16489 58.7178 7.71963V16.4442C58.7178 19.344 59.9786 20.5291 62.0211 20.5291C64.1139 20.5291 65.3747 19.344 65.3747 16.4442V7.71963C65.3747 7.16489 65.6773 6.8623 66.1312 6.8623C66.5851 6.8623 66.9129 7.16489 66.9129 7.71963V16.4442C66.9129 19.8735 65.3243 21.9664 62.0211 21.9664Z" fill="black"/>
<path d="M50.4473 9.36035C51.9098 9.36035 53.1202 10.5707 53.1202 12.0332C53.1202 13.5209 51.9098 14.7312 50.4473 14.7312C48.9596 14.7312 47.7493 13.5209 47.7493 12.0332C47.7493 10.5707 48.9596 9.36035 50.4473 9.36035Z" fill="black"/>
<path d="M35.3026 22.2693C34.6722 22.2693 34.1174 22.0928 34.1174 21.5128C34.1174 21.1598 34.3948 20.832 34.7982 20.832C34.9495 20.832 35.2269 20.8825 35.4034 20.8825C36.2103 20.8825 37.1685 19.8234 37.698 19.0669C36.6138 17.907 35.4286 16.4193 35.4286 14.7803C35.4286 12.8892 36.8659 11.5527 38.8579 11.5527C40.85 11.5527 42.2872 12.8892 42.2872 14.7803C42.2872 16.4193 41.1021 17.907 40.0179 19.0669C40.5474 19.8234 41.5056 20.8825 42.3125 20.8825C42.489 20.8825 42.7663 20.832 42.9176 20.832C43.3211 20.832 43.5984 21.1598 43.5984 21.5128C43.5984 22.0928 43.0437 22.2693 42.4133 22.2693C40.6987 22.2693 39.6901 21.2103 38.8579 20.0756C38.0258 21.2103 37.0172 22.2693 35.3026 22.2693Z" fill="black"/>
<path d="M27.2588 9.36035C28.7213 9.36035 29.9317 10.5707 29.9317 12.0332C29.9317 13.5209 28.7213 14.7312 27.2588 14.7312C25.7711 14.7312 24.5608 13.5209 24.5608 12.0332C24.5608 10.5707 25.7711 9.36035 27.2588 9.36035Z" fill="black"/>
<path d="M15.6443 21.9664C12.3916 21.9664 10.803 19.8735 10.803 16.4442V7.71963C10.803 7.16489 11.1056 6.8623 11.5594 6.8623C12.0133 6.8623 12.3411 7.16489 12.3411 7.71963V16.4442C12.3411 19.344 13.6019 20.5291 15.6443 20.5291C17.7372 20.5291 18.998 19.344 18.998 16.4442V7.71963C18.998 7.16489 19.3006 6.8623 19.7545 6.8623C20.2083 6.8623 20.5361 7.16489 20.5361 7.71963V16.4442C20.5361 19.8735 18.9476 21.9664 15.6443 21.9664Z" fill="black"/>
<path d="M102.826 9.31808V23.0257H105.213V9.27947C105.213 3.9895 101.9 0.823242 97.3595 0.823242C92.8196 0.823242 89.5059 3.9895 89.5059 9.27947V23.0257H91.8933V9.31808C91.8933 5.10927 94.1502 2.98556 97.3595 2.98556C100.569 2.98556 102.826 5.10927 102.826 9.31808ZM107.053 21.2881H87.6664C86.8445 21.2881 86.4531 21.7128 86.4531 22.6009V27.4275C86.4531 28.3156 86.8445 28.7404 87.6664 28.7404C88.4492 28.7404 88.8405 28.3156 88.8405 27.4275V23.4118H105.879V27.4275C105.879 28.3156 106.27 28.7404 107.053 28.7404C107.875 28.7404 108.266 28.3156 108.266 27.4275V22.6009C108.266 21.7128 107.875 21.2881 107.053 21.2881Z" fill="white"/>
<path d="M124.102 21.4039C122.406 23.0257 120.292 23.8365 117.761 23.8365C115.23 23.8365 113.104 23.0257 111.382 21.4039C109.686 19.7564 108.838 17.6842 108.838 15.1872C108.838 12.6903 109.686 10.6309 111.382 9.00918C113.104 7.36169 115.23 6.53795 117.761 6.53795C120.292 6.53795 122.406 7.36169 124.102 9.00918C125.824 10.6309 126.685 12.6903 126.685 15.1872C126.685 17.6842 125.824 19.7564 124.102 21.4039ZM113.143 19.8594C114.421 21.095 115.961 21.7128 117.761 21.7128C119.562 21.7128 121.101 21.095 122.379 19.8594C123.658 18.6238 124.297 17.0664 124.297 15.1872C124.297 13.3081 123.658 11.7507 122.379 10.5151C121.101 9.27947 119.562 8.66166 117.761 8.66166C115.961 8.66166 114.421 9.27947 113.143 10.5151C111.864 11.7507 111.225 13.3081 111.225 15.1872C111.225 17.0664 111.864 18.6238 113.143 19.8594Z" fill="white"/>
<path d="M143.76 23.8365C143.316 23.8365 142.912 23.6177 142.546 23.1801L136.075 14.8783L132.775 17.7743V22.6009C132.775 23.4247 132.383 23.8365 131.601 23.8365C131.261 23.8365 130.988 23.7207 130.779 23.489C130.57 23.2831 130.466 22.987 130.466 22.6009V7.77356C130.466 6.94982 130.857 6.53795 131.64 6.53795C131.979 6.53795 132.253 6.65379 132.462 6.88547C132.67 7.0914 132.775 7.38743 132.775 7.77356V15.1872L142.116 7.23298C142.768 6.76963 143.251 6.53795 143.564 6.53795C143.877 6.53795 144.125 6.64092 144.307 6.84685C144.516 7.02705 144.621 7.2716 144.621 7.5805C144.621 7.8894 144.555 8.13395 144.425 8.31414C144.294 8.46859 144.02 8.70027 143.603 9.00918L137.954 13.5269L144.19 21.4425C144.66 21.9831 144.895 22.4207 144.895 22.7554C144.895 23.09 144.79 23.3474 144.581 23.5276C144.373 23.7336 144.099 23.8365 143.76 23.8365Z" fill="white"/>
<path d="M154.703 23.8365C152.642 23.8365 150.906 23.3603 149.497 22.4078C148.115 21.4297 147.423 20.1426 147.423 18.5466C147.423 16.9506 148.115 15.6763 149.497 14.7239C150.906 13.7457 152.642 13.2566 154.703 13.2566C157.208 13.2566 159.217 13.7972 160.73 14.8783V13.4497C160.73 11.9824 160.247 10.824 159.282 9.9745C158.317 9.09927 156.934 8.66166 155.133 8.66166C153.646 8.66166 152.263 8.98343 150.985 9.62698C150.15 10.0389 149.615 10.2448 149.38 10.2448C149.041 10.2448 148.767 10.1418 148.558 9.93589C148.349 9.72995 148.245 9.45966 148.245 9.12502C148.245 8.63592 148.65 8.18543 149.458 7.77356C150.998 6.94982 152.889 6.53795 155.133 6.53795C160.378 6.53795 163 8.82898 163 13.411V22.6009C163 23.4247 162.622 23.8365 161.865 23.8365C161.526 23.8365 161.252 23.7207 161.043 23.489C160.834 23.2831 160.73 22.987 160.73 22.6009V22.2148C159.217 23.2959 157.208 23.8365 154.703 23.8365ZM151.337 20.9406C152.355 21.5584 153.698 21.8673 155.368 21.8673C157.038 21.8673 158.369 21.5584 159.36 20.9406C160.378 20.297 160.887 19.499 160.887 18.5466C160.887 17.5941 160.378 16.809 159.36 16.1912C158.369 15.5476 157.038 15.2259 155.368 15.2259C153.698 15.2259 152.355 15.5476 151.337 16.1912C150.345 16.809 149.85 17.5941 149.85 18.5466C149.85 19.499 150.345 20.297 151.337 20.9406Z" fill="white"/>
</svg>
