<svg xmlns="http://www.w3.org/2000/svg" fill="none" viewBox="0 0 182 198">
  <path fill="#fff" d="M38.065 197.305H0v-1.146h38.051a383.88 383.88 0 0 1 4.231-.206c13.444-.607 28.684-1.295 37.604-11.516 6.638-7.608 10-15.798 10.284-25.037.23-7.622-1.53-15.936-5.706-26.95-5.042-13.309-10.213-28.893-7.692-45.448 1.055-6.915 3.796-13.412 6.449-19.7.847-1.986 1.67-3.981 2.469-5.987 1.04-2.636 2.275-5.254 3.472-7.789 2.607-5.52 5.3-11.227 6.05-17.397.272-2.226.18-4.961-.401-7.502-2.902 1.082-6.677 1.22-9.035.117-2.624-1.223-3.014-3.867-2.263-5.81.802-2.085 3.074-3.895 6.15-2.942 3.097.963 4.939 3.79 5.919 7.033.334-.175.652-.379.95-.61 4.75-3.73 7.334-10.04 9.62-15.606l.098-.244c1.804-4.397 5.548-7.746 10.55-9.43 4.641-1.565 9.854-1.51 14.3.154 4.887 1.825 8.924 5.635 11.677 11.012 2.294 4.486 3.698 10.083 3.953 15.761l-1.146.052c-.673-15.134-8.133-23.227-14.885-25.753-4.205-1.57-9.138-1.622-13.532-.144-4.681 1.579-8.182 4.698-9.855 8.783l-.1.241c-2.337 5.7-4.984 12.16-9.972 16.074a8 8 0 0 1-1.355.845 24.18 24.18 0 0 1 .464 8.107c-.773 6.353-3.506 12.146-6.153 17.749-1.186 2.515-2.415 5.119-3.438 7.72-.793 2.014-1.652 4.048-2.48 6.016-2.627 6.216-5.34 12.65-6.374 19.422-2.478 16.28 2.641 31.697 7.634 44.869 6.54 17.257 10.488 35.639-4.787 53.148-9.244 10.59-25.418 11.321-38.414 11.908-1.476.066-2.865.129-4.24.201l-.029.002-.003.003ZM88.048 20.886c-1.72 0-2.965 1.16-3.467 2.461-.584 1.507-.289 3.44 1.68 4.36 2.067.965 5.631.796 8.258-.2-.894-3.026-2.55-5.598-5.197-6.417a4.158 4.158 0 0 0-1.274-.204Z"/>
  <path fill="#fff" d="M181.994 57.831v71.587a20.776 20.776 0 0 1-6.203 14.787 21.317 21.317 0 0 1-14.976 6.125h-31.629a21.313 21.313 0 0 1-14.975-6.125 20.776 20.776 0 0 1-6.203-14.787V57.831h73.989-.003Z"/>
  <path fill="#2E9AFF" d="M144.58 56.98h-36.53l-.042-10.554a20.911 20.911 0 0 1 20.911-20.912h15.658V56.98h.003Z"/>
  <path fill="#fff" d="M145.428 56.98h36.53L182 46.426a20.911 20.911 0 0 0-20.912-20.912H145.43V56.98h-.002Z"/>
</svg>