<svg xmlns="http://www.w3.org/2000/svg" fill="none" viewBox="0 0 264 55">
  <rect width="262.367" height="42.464" x="1.894" fill="#2E9AFF" rx="21.232" transform="rotate(2.556 1.894 0)"/>
  <path fill="#1E2A34" d="M24.793 17.117c2.92.13 4.784 2.444 4.644 5.58-.14 3.136-2.202 5.275-5.123 5.144-1.364-.06-2.656-.67-3.348-1.828l-.252 5.65c-.022.478-.322.753-.729.734-.454-.02-.705-.319-.684-.798l.622-13.932c.022-.478.322-.753.729-.735.455.02.705.32.684.798l-.04.91c.768-1.117 2.133-1.584 3.497-1.523Zm-.13 1.314c-2.083-.093-3.568 1.471-3.676 3.89-.108 2.417 1.232 4.108 3.314 4.2 2.083.094 3.568-1.471 3.676-3.889.108-2.418-1.232-4.108-3.315-4.201ZM38.14 28.459c-3.088-.138-5.357-2.494-5.218-5.606.139-3.112 2.609-5.256 5.697-5.119 3.088.138 5.357 2.494 5.218 5.606-.139 3.112-2.609 5.257-5.697 5.119Zm.059-1.317c2.178.097 4.072-1.497 4.178-3.867.106-2.37-1.639-4.127-3.817-4.224-2.178-.097-4.072 1.497-4.178 3.867-.106 2.37 1.639 4.127 3.817 4.224Zm14.558 1.97c-1.772-.08-3.26-.578-4.335-1.226-.49-.285-.72-.535-.701-.942a.655.655 0 0 1 .7-.64c.407.018.706.295 1.126.553.794.492 1.95.903 3.267.962 2.203.098 3.242-.623 3.286-1.605.05-1.125-.987-1.53-3.366-1.973-2.617-.476-4.479-1.207-4.39-3.194.093-2.083 2.235-2.779 4.46-2.68 1.39.063 2.81.462 3.793 1.01.328.182.511.382.495.741a.655.655 0 0 1-.7.64c-.264-.011-.522-.142-.733-.248-.985-.5-1.859-.802-2.96-.852-1.723-.077-2.897.423-2.942 1.428-.048 1.077 1.3 1.497 3.322 1.875 2.997.566 4.528 1.21 4.438 3.22-.092 2.06-2.055 3.051-4.76 2.93Zm15.114-12.11c-.861-.039-1.461-.57-1.425-1.383.036-.814.681-1.289 1.543-1.25.862.038 1.462.569 1.425 1.383-.036.813-.68 1.288-1.543 1.25Zm3.284 11.348c.526.023.778.298.76.681-.018.407-.293.659-.82.635l-8.497-.38c-.527-.023-.778-.298-.76-.705.017-.383.292-.634.819-.61.646.028 2.893.2 4.065.277l.346-7.756c-1.078-.024-3.427-.057-3.834-.075-.527-.024-.779-.299-.76-.706.017-.383.292-.634.818-.611l4.477.2c.479.021.753.321.732.8l-.367 8.21c.647.006 2.374.01 3.02.04Zm14.462-8.253c.527.023.778.298.761.681-.018.407-.293.659-.82.635-.718-.032-3.659-.235-4.711-.306l-.201 4.5c-.109 2.442.637 3.459 2.337 3.535a4.977 4.977 0 0 0 1.69-.237c.51-.169.731-.279 1.066-.264a.579.579 0 0 1 .572.625c-.02.431-.292.635-.902.871-.513.193-1.528.364-2.485.321-2.729-.122-3.839-1.586-3.691-4.89l.202-4.524c-.72-.008-2.135 0-2.83-.03-.526-.024-.778-.299-.76-.706.018-.383.293-.634.82-.611l2.824.126.16-3.59c.022-.48.298-.755.753-.735.407.019.681.319.66.798l-.16 3.59 4.715.21Zm10.961-1.814c-.861-.038-1.461-.569-1.425-1.382.036-.814.681-1.29 1.543-1.25.862.038 1.462.568 1.425 1.382-.036.814-.68 1.289-1.543 1.25Zm3.283 11.348c.527.024.779.299.762.682-.019.407-.294.659-.82.635l-8.498-.38c-.527-.023-.779-.298-.76-.705.017-.383.292-.635.818-.611.647.029 2.894.201 4.066.277l.346-7.756c-1.078-.024-3.427-.057-3.834-.075-.527-.023-.779-.298-.76-.705.017-.383.292-.635.818-.611l4.477.2c.478.02.753.321.731.8l-.366 8.21c.647.005 2.374.01 3.02.04Zm10.046 2.032c-3.088-.138-5.357-2.494-5.218-5.606.139-3.112 2.609-5.256 5.697-5.118 3.088.138 5.358 2.494 5.219 5.605-.139 3.113-2.61 5.257-5.698 5.119Zm.059-1.317c2.178.098 4.073-1.497 4.178-3.867.106-2.37-1.638-4.126-3.817-4.224-2.178-.097-4.072 1.498-4.178 3.867-.106 2.37 1.639 4.127 3.817 4.224Zm18.029 2.125c-.407-.019-.681-.319-.66-.797l.238-5.339c.107-2.393-1.097-3.359-2.653-3.428-1.699-.076-3.057.775-3.165 3.193l-.237 5.314c-.021.479-.297.754-.752.734-.407-.018-.682-.319-.66-.797l.41-9.192c.022-.48.298-.755.753-.734.406.018.681.318.66.797l-.031.694c.765-1.021 2.004-1.374 3.32-1.315 2.394.107 3.91 1.614 3.782 4.486l-.253 5.65c-.021.478-.297.754-.752.734Zm8.99-1.182c.041-.91.813-1.547 1.77-1.504.958.043 1.67.746 1.629 1.656-.04.91-.812 1.546-1.77 1.504-.957-.043-1.669-.746-1.629-1.656Zm.338-7.565c.04-.91.812-1.546 1.77-1.504.958.043 1.67.747 1.629 1.656-.041.91-.813 1.547-1.77 1.504-.958-.043-1.67-.746-1.629-1.656Zm30.285 10.515c-1.772-.079-3.26-.577-4.335-1.225-.491-.286-.72-.536-.701-.943a.655.655 0 0 1 .7-.64c.407.018.706.296 1.126.554.794.491 1.951.903 3.268.962 2.202.098 3.241-.623 3.285-1.605.05-1.125-.987-1.531-3.366-1.973-2.617-.477-4.479-1.207-4.39-3.194.093-2.083 2.234-2.779 4.461-2.68 1.388.063 2.809.462 3.792 1.01.328.182.511.382.495.741a.655.655 0 0 1-.7.64c-.264-.011-.522-.143-.733-.248-.985-.5-1.859-.803-2.96-.852-1.723-.077-2.897.422-2.942 1.428-.048 1.077 1.3 1.497 3.322 1.875 2.997.566 4.528 1.21 4.438 3.22-.092 2.06-2.055 3.05-4.76 2.93Zm18.507-9.655c.526.023.778.298.761.681-.018.407-.293.659-.82.635-.718-.032-3.659-.235-4.712-.306l-.2 4.5c-.109 2.442.637 3.459 2.336 3.535a4.98 4.98 0 0 0 1.69-.237c.511-.169.732-.279 1.067-.264a.58.58 0 0 1 .572.625c-.02.431-.292.635-.903.871-.512.193-1.527.364-2.485.321-2.728-.122-3.838-1.586-3.691-4.89l.202-4.524c-.719-.008-2.135 0-2.829-.03-.526-.024-.778-.3-.76-.706.017-.383.292-.635.819-.611l2.825.126.16-3.59c.021-.48.297-.755.752-.735.407.018.682.319.66.797l-.16 3.591 4.716.21Zm10.961-1.814c-.862-.038-1.462-.569-1.426-1.383.037-.813.682-1.288 1.543-1.25.862.039 1.462.57 1.426 1.383-.037.814-.681 1.289-1.543 1.25Zm3.283 11.348c.527.024.778.299.761.682-.018.407-.293.658-.82.635l-8.498-.38c-.526-.023-.778-.298-.76-.705.017-.383.292-.635.819-.611.646.029 2.893.201 4.065.277l.346-7.756c-1.078-.024-3.427-.057-3.834-.075-.527-.023-.778-.298-.76-.705.017-.383.292-.635.819-.611l4.476.2c.479.02.753.32.732.8l-.367 8.21c.648.005 2.375.01 3.021.04Zm6.455-3.501c-.11 2.465 1.759 4.132 3.817 4.224 1.149.051 2.319-.352 3.337-1.147.348-.272.571-.43.93-.414.335.015.634.316.619.652-.016.359-.193.567-.565.838-1.117.837-2.704 1.462-4.38 1.387-3.088-.137-5.358-2.47-5.218-5.605.14-3.136 2.609-5.257 5.697-5.119 1.676.075 3.201.839 4.239 1.772.346.304.504.527.488.886-.015.335-.339.608-.674.593-.36-.016-.567-.193-.89-.495-.944-.882-2.073-1.388-3.222-1.44-2.058-.091-4.068 1.402-4.178 3.868Zm22.684 6.385c-.311-.014-.543-.192-.724-.44l-4.127-5.34-2.498 1.686-.133 2.993c-.022.478-.298.754-.753.734-.407-.018-.681-.319-.66-.797l.649-14.53c.021-.48.298-.755.752-.735.407.018.682.319.66.797l-.443 9.935 6.731-4.64c.346-.225.546-.408.905-.392.359.016.636.268.618.675-.019.407-.193.543-.662.858l-3.979 2.628 3.994 5.096c.272.348.407.546.394.833-.018.407-.317.657-.724.64Zm4.734 4.96c-1.412-.062-2.14-.407-2.113-1.029.019-.407.366-.655.725-.64.263.013.523.096.759.179.307.11.664.173.927.185.695.031 1.374-.155 1.869-.492.842-.586 1.715-1.867 2.089-2.737l-3.847-9.455c-.13-.317-.262-.587-.25-.85.017-.383.292-.635.747-.614.359.016.587.29.758.753l3.4 8.739 4.164-8.401c.212-.447.463-.7.822-.683.455.02.707.295.69.678-.012.264-.167.52-.325.825L240 37.447c-1.604 3.143-3.014 4.639-5.767 4.516Z"/>
</svg>